# Blender v3.1.2 OBJ File: ''
# www.blender.org
mtllib plane.mtl
o Plane
v -50.000000 0.000000 -0.048911
v 50.000000 0.000000 -0.048911
v -50.000000 2.000000 -0.048911
v 50.000000 2.000000 -0.048911
v -50.000000 2.000000 -0.048911
v 50.000000 0.000000 -0.048911
v -50.000000 0.000000 0.051089
v 50.000000 0.000000 0.051089
v -50.000000 2.000000 0.051089
v 50.000000 2.000000 0.051089
v -50.000000 2.000000 0.051089
v 50.000000 0.000000 0.051089
vt 1.000000 0.000000
vt 0.000000 0.000000
vt 0.000000 1.000000
vt 1.000000 0.000000
vt 0.000000 1.000000
vt 1.000000 1.000000
vt 1.000000 0.000000
vt 0.000000 1.000000
vt 0.000000 0.000000
vt 1.000000 0.000000
vt 1.000000 1.000000
vt 0.000000 1.000000
vn -0.0000 0.0000 -50.0000
vn 0.0000 -0.0000 1.0000
usemtl None
s 1
f 6/1/1 1/2/1 5/3/1
f 2/4/1 3/5/1 4/6/1
f 12/7/2 11/8/2 7/9/2
f 8/10/2 10/11/2 9/12/2